<?xml version="1.0" encoding="UTF-8" standalone="no"?><svg xmlns="http://www.w3.org/2000/svg" xmlns:xlink="http://www.w3.org/1999/xlink" contentScriptType="application/ecmascript" contentStyleType="text/css" height="1112px" preserveAspectRatio="none" style="width:558px;height:1112px;background:#FFFFFF;" version="1.1" viewBox="0 0 558 1112" width="558px" zoomAndPan="magnify"><defs><filter height="300%" id="f16vn8kzd0o6ea" width="300%" x="-1" y="-1"><feGaussianBlur result="blurOut" stdDeviation="2.0"/><feColorMatrix in="blurOut" result="blurOut2" type="matrix" values="0 0 0 0 0 0 0 0 0 0 0 0 0 0 0 0 0 0 .4 0"/><feOffset dx="4.0" dy="4.0" in="blurOut2" result="blurOut3"/><feBlend in="SourceGraphic" in2="blurOut3" mode="normal"/></filter></defs><g><!--MD5=[6ea451e4742352fdf230812c2c4c6482]
class Show--><rect codeLine="1" fill="#FEFECE" filter="url(#f16vn8kzd0o6ea)" height="422.5472" id="Show" style="stroke:#A80036;stroke-width:1.5;" width="156" x="185.5" y="355"/><ellipse cx="244.25" cy="371" fill="#ADD1B2" rx="11" ry="11" style="stroke:#A80036;stroke-width:1.0;"/><path d="M243.7188,377.5 Q241.9688,377.5 240.8281,376.7344 Q239.7031,375.9531 239.1406,374.5469 Q238.5938,373.125 238.5938,371.25 Q238.5938,369.1406 239.25,367.6406 Q239.9063,366.125 241.1875,365.3125 Q242.4688,364.5 244.3438,364.5 Q245.2344,364.5 245.9063,364.6875 Q246.5781,364.875 247.2656,365.2344 L246.4531,367.3594 Q245.8281,367.0313 245.2813,366.9063 Q244.75,366.7813 244.2656,366.7813 Q243.0938,366.7813 242.3906,367.3281 Q241.6875,367.8594 241.3906,368.8438 Q241.0938,369.8281 241.0938,371.1406 Q241.0938,373.2188 241.8125,374.2188 Q242.5313,375.2031 244.125,375.2031 Q244.7188,375.2031 245.3438,375.0469 Q245.9688,374.8906 246.7969,374.5 L246.7969,376.8281 Q246.0625,377.1719 245.2656,377.3438 Q244.4844,377.5 243.7188,377.5 Z " fill="#000000"/><text fill="#000000" font-family="sans-serif" font-size="12" lengthAdjust="spacing" textLength="30" x="264.75" y="375.656">Show</text><line style="stroke:#A80036;stroke-width:1.5;" x1="186.5" x2="340.5" y1="387" y2="387"/><text fill="#000000" font-family="sans-serif" font-size="11" lengthAdjust="spacing" textLength="52" x="191.5" y="402.7589">Integer id</text><text fill="#000000" font-family="sans-serif" font-size="11" lengthAdjust="spacing" textLength="39" x="191.5" y="417.7408">URL url</text><text fill="#000000" font-family="sans-serif" font-size="11" lengthAdjust="spacing" textLength="64" x="191.5" y="432.7227">String name</text><text fill="#000000" font-family="sans-serif" font-size="11" lengthAdjust="spacing" textLength="58" x="191.5" y="447.7046">String type</text><text fill="#000000" font-family="sans-serif" font-size="11" lengthAdjust="spacing" textLength="84" x="191.5" y="462.6865">String language</text><text fill="#000000" font-family="sans-serif" font-size="11" lengthAdjust="spacing" textLength="79" x="191.5" y="477.6684">String[] genres</text><text fill="#000000" font-family="sans-serif" font-size="11" lengthAdjust="spacing" textLength="66" x="191.5" y="492.6502">String status</text><text fill="#000000" font-family="sans-serif" font-size="11" lengthAdjust="spacing" textLength="84" x="191.5" y="507.6321">Integer runtime</text><text fill="#000000" font-family="sans-serif" font-size="11" lengthAdjust="spacing" textLength="128" x="191.5" y="522.614">Integer averageRuntime</text><text fill="#000000" font-family="sans-serif" font-size="11" lengthAdjust="spacing" textLength="82" x="191.5" y="537.5959">Date premiered</text><text fill="#000000" font-family="sans-serif" font-size="11" lengthAdjust="spacing" textLength="60" x="191.5" y="552.5778">Date ended</text><text fill="#000000" font-family="sans-serif" font-size="11" lengthAdjust="spacing" textLength="78" x="191.5" y="567.5597">URL officialSite</text><text fill="#000000" font-family="sans-serif" font-size="11" lengthAdjust="spacing" textLength="96" x="191.5" y="582.5416">Schedule schedule</text><text fill="#000000" font-family="sans-serif" font-size="11" lengthAdjust="spacing" textLength="69" x="191.5" y="597.5235">Rating rating</text><text fill="#000000" font-family="sans-serif" font-size="11" lengthAdjust="spacing" textLength="78" x="191.5" y="612.5053">Integer weight</text><text fill="#000000" font-family="sans-serif" font-size="11" lengthAdjust="spacing" textLength="92" x="191.5" y="627.4872">Network network</text><text fill="#000000" font-family="sans-serif" font-size="11" lengthAdjust="spacing" textLength="113" x="191.5" y="642.4691">Network webChannel</text><text fill="#000000" font-family="sans-serif" font-size="11" lengthAdjust="spacing" textLength="109" x="191.5" y="657.451">Country dvdCountry</text><text fill="#000000" font-family="sans-serif" font-size="11" lengthAdjust="spacing" textLength="99" x="191.5" y="672.4329">Externals externals</text><text fill="#000000" font-family="sans-serif" font-size="11" lengthAdjust="spacing" textLength="68" x="191.5" y="687.4148">Image image</text><text fill="#000000" font-family="sans-serif" font-size="11" lengthAdjust="spacing" textLength="82" x="191.5" y="702.3967">HTML summary</text><text fill="#000000" font-family="sans-serif" font-size="11" lengthAdjust="spacing" textLength="104" x="191.5" y="717.3786">Timestamp updated</text><text fill="#000000" font-family="sans-serif" font-size="11" lengthAdjust="spacing" textLength="75" x="191.5" y="732.3604">Link _links.self</text><text fill="#000000" font-family="sans-serif" font-size="11" lengthAdjust="spacing" textLength="144" x="191.5" y="747.3423">Link _links.previousepisode</text><text fill="#000000" font-family="sans-serif" font-size="11" lengthAdjust="spacing" textLength="121" x="191.5" y="762.3242">Link _links.nextepisode</text><line style="stroke:#A80036;stroke-width:1.5;" x1="186.5" x2="340.5" y1="769.5472" y2="769.5472"/><!--MD5=[c680266cf9e454ca06c2d1bb8b683e6b]
class Schedule--><rect codeLine="41" fill="#FEFECE" filter="url(#f16vn8kzd0o6ea)" height="77.9638" id="Schedule" style="stroke:#A80036;stroke-width:1.5;" width="83" x="125" y="853"/><ellipse cx="140" cy="869" fill="#ADD1B2" rx="11" ry="11" style="stroke:#A80036;stroke-width:1.0;"/><path d="M139.4688,875.5 Q137.7188,875.5 136.5781,874.7344 Q135.4531,873.9531 134.8906,872.5469 Q134.3438,871.125 134.3438,869.25 Q134.3438,867.1406 135,865.6406 Q135.6563,864.125 136.9375,863.3125 Q138.2188,862.5 140.0938,862.5 Q140.9844,862.5 141.6563,862.6875 Q142.3281,862.875 143.0156,863.2344 L142.2031,865.3594 Q141.5781,865.0313 141.0313,864.9063 Q140.5,864.7813 140.0156,864.7813 Q138.8438,864.7813 138.1406,865.3281 Q137.4375,865.8594 137.1406,866.8438 Q136.8438,867.8281 136.8438,869.1406 Q136.8438,871.2188 137.5625,872.2188 Q138.2813,873.2031 139.875,873.2031 Q140.4688,873.2031 141.0938,873.0469 Q141.7188,872.8906 142.5469,872.5 L142.5469,874.8281 Q141.8125,875.1719 141.0156,875.3438 Q140.2344,875.5 139.4688,875.5 Z " fill="#000000"/><text fill="#000000" font-family="sans-serif" font-size="12" lengthAdjust="spacing" textLength="51" x="154" y="873.656">Schedule</text><line style="stroke:#A80036;stroke-width:1.5;" x1="126" x2="207" y1="885" y2="885"/><text fill="#000000" font-family="sans-serif" font-size="11" lengthAdjust="spacing" textLength="51" x="131" y="900.7589">Time time</text><text fill="#000000" font-family="sans-serif" font-size="11" lengthAdjust="spacing" textLength="67" x="131" y="915.7408">String[] days</text><line style="stroke:#A80036;stroke-width:1.5;" x1="126" x2="207" y1="922.9638" y2="922.9638"/><!--MD5=[0a8a9a553ad28d76d3a1fd3918a25a86]
class Rating--><rect codeLine="83" fill="#FEFECE" filter="url(#f16vn8kzd0o6ea)" height="62.9819" id="Rating" style="stroke:#A80036;stroke-width:1.5;" width="83" x="7" y="860.5"/><ellipse cx="29.2" cy="876.5" fill="#ADD1B2" rx="11" ry="11" style="stroke:#A80036;stroke-width:1.0;"/><path d="M28.6688,883 Q26.9188,883 25.7781,882.2344 Q24.6531,881.4531 24.0906,880.0469 Q23.5438,878.625 23.5438,876.75 Q23.5438,874.6406 24.2,873.1406 Q24.8563,871.625 26.1375,870.8125 Q27.4188,870 29.2938,870 Q30.1844,870 30.8563,870.1875 Q31.5281,870.375 32.2156,870.7344 L31.4031,872.8594 Q30.7781,872.5313 30.2313,872.4063 Q29.7,872.2813 29.2156,872.2813 Q28.0438,872.2813 27.3406,872.8281 Q26.6375,873.3594 26.3406,874.3438 Q26.0438,875.3281 26.0438,876.6406 Q26.0438,878.7188 26.7625,879.7188 Q27.4813,880.7031 29.075,880.7031 Q29.6688,880.7031 30.2938,880.5469 Q30.9188,880.3906 31.7469,880 L31.7469,882.3281 Q31.0125,882.6719 30.2156,882.8438 Q29.4344,883 28.6688,883 Z " fill="#000000"/><text fill="#000000" font-family="sans-serif" font-size="12" lengthAdjust="spacing" textLength="35" x="44.8" y="881.156">Rating</text><line style="stroke:#A80036;stroke-width:1.5;" x1="8" x2="89" y1="892.5" y2="892.5"/><text fill="#000000" font-family="sans-serif" font-size="11" lengthAdjust="spacing" textLength="71" x="13" y="908.2589">Float average</text><line style="stroke:#A80036;stroke-width:1.5;" x1="8" x2="89" y1="915.4819" y2="915.4819"/><!--MD5=[ec81f511f4d20a18ef555a8be4cd58b8]
class Network--><rect codeLine="46" fill="#FEFECE" filter="url(#f16vn8kzd0o6ea)" height="107.9276" id="Network" style="stroke:#A80036;stroke-width:1.5;" width="99" x="243" y="838"/><ellipse cx="267" cy="854" fill="#ADD1B2" rx="11" ry="11" style="stroke:#A80036;stroke-width:1.0;"/><path d="M266.4688,860.5 Q264.7188,860.5 263.5781,859.7344 Q262.4531,858.9531 261.8906,857.5469 Q261.3438,856.125 261.3438,854.25 Q261.3438,852.1406 262,850.6406 Q262.6563,849.125 263.9375,848.3125 Q265.2188,847.5 267.0938,847.5 Q267.9844,847.5 268.6563,847.6875 Q269.3281,847.875 270.0156,848.2344 L269.2031,850.3594 Q268.5781,850.0313 268.0313,849.9063 Q267.5,849.7813 267.0156,849.7813 Q265.8438,849.7813 265.1406,850.3281 Q264.4375,850.8594 264.1406,851.8438 Q263.8438,852.8281 263.8438,854.1406 Q263.8438,856.2188 264.5625,857.2188 Q265.2813,858.2031 266.875,858.2031 Q267.4688,858.2031 268.0938,858.0469 Q268.7188,857.8906 269.5469,857.5 L269.5469,859.8281 Q268.8125,860.1719 268.0156,860.3438 Q267.2344,860.5 266.4688,860.5 Z " fill="#000000"/><text fill="#000000" font-family="sans-serif" font-size="12" lengthAdjust="spacing" textLength="47" x="283" y="858.656">Network</text><line style="stroke:#A80036;stroke-width:1.5;" x1="244" x2="341" y1="870" y2="870"/><text fill="#000000" font-family="sans-serif" font-size="11" lengthAdjust="spacing" textLength="52" x="249" y="885.7589">Integer id</text><text fill="#000000" font-family="sans-serif" font-size="11" lengthAdjust="spacing" textLength="64" x="249" y="900.7408">String name</text><text fill="#000000" font-family="sans-serif" font-size="11" lengthAdjust="spacing" textLength="87" x="249" y="915.7227">Country country</text><text fill="#000000" font-family="sans-serif" font-size="11" lengthAdjust="spacing" textLength="78" x="249" y="930.7046">URL officialSite</text><line style="stroke:#A80036;stroke-width:1.5;" x1="244" x2="341" y1="937.9276" y2="937.9276"/><!--MD5=[deb4e1f6eb1e3c1256fdb830f96abfbb]
class Country--><rect codeLine="55" fill="#FEFECE" filter="url(#f16vn8kzd0o6ea)" height="92.9457" id="Country" style="stroke:#A80036;stroke-width:1.5;" width="113" x="287" y="1006"/><ellipse cx="318.65" cy="1022" fill="#ADD1B2" rx="11" ry="11" style="stroke:#A80036;stroke-width:1.0;"/><path d="M318.1188,1028.5 Q316.3688,1028.5 315.2281,1027.7344 Q314.1031,1026.9531 313.5406,1025.5469 Q312.9938,1024.125 312.9938,1022.25 Q312.9938,1020.1406 313.65,1018.6406 Q314.3063,1017.125 315.5875,1016.3125 Q316.8688,1015.5 318.7438,1015.5 Q319.6344,1015.5 320.3063,1015.6875 Q320.9781,1015.875 321.6656,1016.2344 L320.8531,1018.3594 Q320.2281,1018.0313 319.6813,1017.9063 Q319.15,1017.7813 318.6656,1017.7813 Q317.4938,1017.7813 316.7906,1018.3281 Q316.0875,1018.8594 315.7906,1019.8438 Q315.4938,1020.8281 315.4938,1022.1406 Q315.4938,1024.2188 316.2125,1025.2188 Q316.9313,1026.2031 318.525,1026.2031 Q319.1188,1026.2031 319.7438,1026.0469 Q320.3688,1025.8906 321.1969,1025.5 L321.1969,1027.8281 Q320.4625,1028.1719 319.6656,1028.3438 Q318.8844,1028.5 318.1188,1028.5 Z " fill="#000000"/><text fill="#000000" font-family="sans-serif" font-size="12" lengthAdjust="spacing" textLength="44" x="336.35" y="1026.656">Country</text><line style="stroke:#A80036;stroke-width:1.5;" x1="288" x2="399" y1="1038" y2="1038"/><text fill="#000000" font-family="sans-serif" font-size="11" lengthAdjust="spacing" textLength="64" x="293" y="1053.7589">String name</text><text fill="#000000" font-family="sans-serif" font-size="11" lengthAdjust="spacing" textLength="60" x="293" y="1068.7408">String code</text><text fill="#000000" font-family="sans-serif" font-size="11" lengthAdjust="spacing" textLength="101" x="293" y="1083.7227">Timezone timezone</text><line style="stroke:#A80036;stroke-width:1.5;" x1="288" x2="399" y1="1090.9457" y2="1090.9457"/><!--MD5=[d28a7ccbab686b4f7dbbaca3d883bb6d]
class Externals--><rect codeLine="35" fill="#FEFECE" filter="url(#f16vn8kzd0o6ea)" height="92.9457" id="Externals" style="stroke:#A80036;stroke-width:1.5;" width="95" x="449" y="845.5"/><ellipse cx="468.95" cy="861.5" fill="#ADD1B2" rx="11" ry="11" style="stroke:#A80036;stroke-width:1.0;"/><path d="M468.4188,868 Q466.6688,868 465.5281,867.2344 Q464.4031,866.4531 463.8406,865.0469 Q463.2938,863.625 463.2938,861.75 Q463.2938,859.6406 463.95,858.1406 Q464.6063,856.625 465.8875,855.8125 Q467.1688,855 469.0438,855 Q469.9344,855 470.6063,855.1875 Q471.2781,855.375 471.9656,855.7344 L471.1531,857.8594 Q470.5281,857.5313 469.9813,857.4063 Q469.45,857.2813 468.9656,857.2813 Q467.7938,857.2813 467.0906,857.8281 Q466.3875,858.3594 466.0906,859.3438 Q465.7938,860.3281 465.7938,861.6406 Q465.7938,863.7188 466.5125,864.7188 Q467.2313,865.7031 468.825,865.7031 Q469.4188,865.7031 470.0438,865.5469 Q470.6688,865.3906 471.4969,865 L471.4969,867.3281 Q470.7625,867.6719 469.9656,867.8438 Q469.1844,868 468.4188,868 Z " fill="#000000"/><text fill="#000000" font-family="sans-serif" font-size="12" lengthAdjust="spacing" textLength="52" x="484.05" y="866.156">Externals</text><line style="stroke:#A80036;stroke-width:1.5;" x1="450" x2="543" y1="877.5" y2="877.5"/><text fill="#000000" font-family="sans-serif" font-size="11" lengthAdjust="spacing" textLength="76" x="455" y="893.2589">Integer tvrage</text><text fill="#000000" font-family="sans-serif" font-size="11" lengthAdjust="spacing" textLength="83" x="455" y="908.2408">Integer thetvdb</text><text fill="#000000" font-family="sans-serif" font-size="11" lengthAdjust="spacing" textLength="62" x="455" y="923.2227">String imdb</text><line style="stroke:#A80036;stroke-width:1.5;" x1="450" x2="543" y1="930.4457" y2="930.4457"/><!--MD5=[89f1af135d226d270851fb7756972918]
class Episode--><rect codeLine="61" fill="#FEFECE" filter="url(#f16vn8kzd0o6ea)" height="287.7102" id="Episode" style="stroke:#A80036;stroke-width:1.5;" width="118" x="110.5" y="7"/><ellipse cx="144.4" cy="23" fill="#ADD1B2" rx="11" ry="11" style="stroke:#A80036;stroke-width:1.0;"/><path d="M143.8688,29.5 Q142.1188,29.5 140.9781,28.7344 Q139.8531,27.9531 139.2906,26.5469 Q138.7438,25.125 138.7438,23.25 Q138.7438,21.1406 139.4,19.6406 Q140.0563,18.125 141.3375,17.3125 Q142.6188,16.5 144.4938,16.5 Q145.3844,16.5 146.0563,16.6875 Q146.7281,16.875 147.4156,17.2344 L146.6031,19.3594 Q145.9781,19.0313 145.4313,18.9063 Q144.9,18.7813 144.4156,18.7813 Q143.2438,18.7813 142.5406,19.3281 Q141.8375,19.8594 141.5406,20.8438 Q141.2438,21.8281 141.2438,23.1406 Q141.2438,25.2188 141.9625,26.2188 Q142.6813,27.2031 144.275,27.2031 Q144.8688,27.2031 145.4938,27.0469 Q146.1188,26.8906 146.9469,26.5 L146.9469,28.8281 Q146.2125,29.1719 145.4156,29.3438 Q144.6344,29.5 143.8688,29.5 Z " fill="#000000"/><text fill="#000000" font-family="sans-serif" font-size="12" lengthAdjust="spacing" textLength="44" x="162.6" y="27.656">Episode</text><line style="stroke:#A80036;stroke-width:1.5;" x1="111.5" x2="227.5" y1="39" y2="39"/><text fill="#000000" font-family="sans-serif" font-size="11" lengthAdjust="spacing" textLength="52" x="116.5" y="54.7589">Integer id</text><text fill="#000000" font-family="sans-serif" font-size="11" lengthAdjust="spacing" textLength="39" x="116.5" y="69.7408">URL url</text><text fill="#000000" font-family="sans-serif" font-size="11" lengthAdjust="spacing" textLength="64" x="116.5" y="84.7227">String name</text><text fill="#000000" font-family="sans-serif" font-size="11" lengthAdjust="spacing" textLength="78" x="116.5" y="99.7046">Integer season</text><text fill="#000000" font-family="sans-serif" font-size="11" lengthAdjust="spacing" textLength="84" x="116.5" y="114.6865">Integer number</text><text fill="#000000" font-family="sans-serif" font-size="11" lengthAdjust="spacing" textLength="58" x="116.5" y="129.6684">String type</text><text fill="#000000" font-family="sans-serif" font-size="11" lengthAdjust="spacing" textLength="64" x="116.5" y="144.6502">Date airdate</text><text fill="#000000" font-family="sans-serif" font-size="11" lengthAdjust="spacing" textLength="65" x="116.5" y="159.6321">Time airtime</text><text fill="#000000" font-family="sans-serif" font-size="11" lengthAdjust="spacing" textLength="106" x="116.5" y="174.614">Timestamp airstamp</text><text fill="#000000" font-family="sans-serif" font-size="11" lengthAdjust="spacing" textLength="84" x="116.5" y="189.5959">Integer runtime</text><text fill="#000000" font-family="sans-serif" font-size="11" lengthAdjust="spacing" textLength="69" x="116.5" y="204.5778">Rating rating</text><text fill="#000000" font-family="sans-serif" font-size="11" lengthAdjust="spacing" textLength="68" x="116.5" y="219.5597">Image image</text><text fill="#000000" font-family="sans-serif" font-size="11" lengthAdjust="spacing" textLength="82" x="116.5" y="234.5416">HTML summary</text><text fill="#000000" font-family="sans-serif" font-size="11" lengthAdjust="spacing" textLength="60" x="116.5" y="249.5235">Show show</text><text fill="#000000" font-family="sans-serif" font-size="11" lengthAdjust="spacing" textLength="75" x="116.5" y="264.5053">Link _links.self</text><text fill="#000000" font-family="sans-serif" font-size="11" lengthAdjust="spacing" textLength="85" x="116.5" y="279.4872">Link _links.show</text><line style="stroke:#A80036;stroke-width:1.5;" x1="111.5" x2="227.5" y1="286.7102" y2="286.7102"/><rect fill="#FEFECE" filter="url(#f16vn8kzd0o6ea)" height="55.5841" style="stroke:#A80036;stroke-width:1.5;" width="72" x="263.5" y="123"/><text fill="#000000" font-family="sans-serif" font-size="12" lengthAdjust="spacing" textLength="36" x="281.5" y="137.8281">Image</text><line style="stroke:#A80036;stroke-width:1.5;" x1="264.5" x2="334.5" y1="143.3441" y2="143.3441"/><text fill="#000000" font-family="sans-serif" font-size="10" lengthAdjust="spacing" textLength="60" x="269.5" y="158.0341">URL medium</text><text fill="#000000" font-family="sans-serif" font-size="10" lengthAdjust="spacing" textLength="58" x="269.5" y="171.6541">URL original</text><rect fill="#FEFECE" filter="url(#f16vn8kzd0o6ea)" height="41.9641" style="stroke:#A80036;stroke-width:1.5;" width="52" x="370.5" y="130"/><text fill="#000000" font-family="sans-serif" font-size="12" lengthAdjust="spacing" textLength="22" x="385.5" y="144.8281">Link</text><line style="stroke:#A80036;stroke-width:1.5;" x1="371.5" x2="421.5" y1="150.3441" y2="150.3441"/><text fill="#000000" font-family="sans-serif" font-size="10" lengthAdjust="spacing" textLength="40" x="376.5" y="165.0341">URL href</text><!--MD5=[5c6b1625a988739323291f4bce38bd0c]
reverse link Show to Schedule--><path codeLine="29" d="M196.18,792.03 C189.3,814.96 183.02,835.9 178.03,852.56 " fill="none" id="Show-backto-Schedule" style="stroke:#A80036;stroke-width:1.0;"/><polygon fill="#A80036" points="199.86,779.76,194.3027,784.3552,196.407,791.2525,201.9643,786.6572,199.86,779.76" style="stroke:#A80036;stroke-width:1.0;"/><!--MD5=[6545e1d9444533f4fb6d04aaa55fc79c]
reverse link Show to Rating--><path codeLine="30" d="M177.43,706.52 C162.07,730.53 146.01,755.12 130.5,778 C111.33,806.29 88.4,837.7 71.67,860.21 " fill="none" id="Show-backto-Rating" style="stroke:#A80036;stroke-width:1.0;"/><polygon fill="#A80036" points="184.34,695.69,177.739,698.5928,177.8796,705.8025,184.4806,702.8997,184.34,695.69" style="stroke:#A80036;stroke-width:1.0;"/><!--MD5=[46199b27e1758b22609306653836a4ac]
reverse link Show to Network--><path codeLine="31" d="M283.65,792.31 C285.12,808.72 286.5,824.1 287.71,837.61 " fill="none" id="Show-backto-Network" style="stroke:#A80036;stroke-width:1.0;"/><polygon fill="#A80036" points="282.53,779.82,279.0796,786.152,283.5974,791.7724,287.0479,785.4404,282.53,779.82" style="stroke:#A80036;stroke-width:1.0;"/><!--MD5=[f979554aa0e3d85f5e63348a1d83f692]
reverse link Show to Country--><path codeLine="32" d="M345.89,777.97 C351.4,798.03 356.1,818.25 359.5,838 C367.65,885.3 363.11,898.14 359.5,946 C358.02,965.67 355,987.24 351.98,1005.71 " fill="none" id="Show-backto-Country" style="stroke:#A80036;stroke-width:1.0;"/><polygon fill="#A80036" points="342.36,765.58,340.1457,772.4427,345.6288,777.1262,347.8431,770.2635,342.36,765.58" style="stroke:#A80036;stroke-width:1.0;"/><!--MD5=[b662bafafbc5189c6137d80fd2a726cc]
reverse link Show to Externals--><path codeLine="33" d="M350.09,687.73 C389.65,742.65 434.15,804.43 463.59,845.31 " fill="none" id="Show-backto-Externals" style="stroke:#A80036;stroke-width:1.0;"/><polygon fill="#A80036" points="342.62,677.35,342.8792,684.5564,349.631,687.0889,349.3718,679.8825,342.62,677.35" style="stroke:#A80036;stroke-width:1.0;"/><!--MD5=[33972919f15bc48d218dec232eed510c]
reverse link Network to Country--><path codeLine="53" d="M313.93,959.59 C318.91,975.08 324.1,991.22 328.72,1005.58 " fill="none" id="Network-backto-Country" style="stroke:#A80036;stroke-width:1.0;"/><polygon fill="#A80036" points="310.09,947.66,308.1226,954.5975,313.7698,959.0819,315.7372,952.1443,310.09,947.66" style="stroke:#A80036;stroke-width:1.0;"/><!--MD5=[edd4892d14d7aadb4d105cea50fbad94]
reverse link Episode to Rating--><path codeLine="80" d="M143.68,309.67 C114.39,488.58 68.72,767.53 53.57,860.03 " fill="none" id="Episode-backto-Rating" style="stroke:#A80036;stroke-width:1.0;"/><polygon fill="#A80036" points="145.78,296.86,140.8633,302.135,143.8414,308.7024,148.7582,303.4274,145.78,296.86" style="stroke:#A80036;stroke-width:1.0;"/><!--MD5=[adaa8250f95b35eac8792a9ba2e0a97d]
link Episode to Show--><path codeLine="81" d="M202.11,295.46 C205.46,310.2 208.92,325.4 212.41,340.74 " fill="none" id="Episode-to-Show" style="stroke:#A80036;stroke-width:1.0;"/><polygon fill="#A80036" points="215.28,353.39,217.8495,346.6522,212.6183,341.6889,210.0488,348.4267,215.28,353.39" style="stroke:#A80036;stroke-width:1.0;"/><!--MD5=[015491ececc3d0691ae0813163e0f4f7]
@startuml
class Show {
	Integer id
	URL url
	String name
    String type
    String language
    String[] genres
    String status
    Integer runtime
    Integer averageRuntime
    Date premiered
    Date ended
    URL officialSite
    Schedule schedule
	Rating rating
	Integer weight
	Network network
	Network webChannel
    Country dvdCountry
    Externals externals
    Image image
    HTML summary
    Timestamp updated
    Link _links.self
    Link _links.previousepisode
    Link _links.nextepisode
}

Show *- - Schedule
Show *- - Rating
Show *- - Network
Show *- - Country
Show *- - Externals

class Externals {
	Integer tvrage
	Integer thetvdb
	String imdb
}

class Schedule {
    Time time
    String[] days
}

class Network {
	Integer id
	String name
    Country country
	URL officialSite
}

Network *- - Country

class Country {
	String name
    String code
    Timezone timezone
}

class Episode {
	Integer id
	URL url
	String name
	Integer season
	Integer number
	String type
	Date airdate
	Time airtime
	Timestamp airstamp
	Integer runtime
	Rating rating
	Image image
	HTML summary
	Show show
    Link _links.self
    Link _links.show
}

Episode *- - Rating
Episode - -* Show

class Rating {
	Float average
}

object Image {
	URL medium
	URL original
}

object Link {
	URL href
}
@enduml

PlantUML version 1.2021.7(Sun May 23 14:40:07 CEST 2021)
(GPL source distribution)
Java Runtime: OpenJDK Runtime Environment
JVM: OpenJDK 64-Bit Server VM
Default Encoding: UTF-8
Language: en
Country: US
--></g></svg>